<?xml version="1.0" standalone="no"?>
<!DOCTYPE svg PUBLIC "-//W3C//DTD SVG 20010904//EN"
 "http://www.w3.org/TR/2001/REC-SVG-20010904/DTD/svg10.dtd">
<svg version="1.0" xmlns="http://www.w3.org/2000/svg"
 width="64.000000pt" height="64.000000pt" viewBox="0 0 64.000000 64.000000"
 preserveAspectRatio="xMidYMid meet">

<g transform="translate(0.000000,64.000000) scale(0.100000,-0.100000)"
fill="#000000" stroke="none">
<path d="M393 624 c-38 -19 -73 -71 -76 -111 -2 -24 1 -28 23 -25 55 8 110 70
110 125 0 31 -11 33 -57 11z"/>
<path d="M177 475 c-50 -17 -76 -41 -98 -90 -43 -92 -6 -251 79 -342 36 -39
72 -49 112 -33 36 15 86 15 124 0 16 -6 42 -8 58 -5 32 7 90 73 113 129 16 37
15 38 -10 58 -68 53 -73 138 -12 206 l20 22 -23 25 c-39 42 -89 51 -163 31
-43 -12 -70 -14 -87 -8 -51 19 -76 20 -113 7z"/>
</g>
</svg>
